<svg xmlns="http://www.w3.org/2000/svg">
  <defs>
    <g id="logo-dark-bg">
      <path d="M246 256H10c-5.52 0-10-4.48-10-10V10C0 4.48 4.48 0 10 0h236c5.52 0 10 4.48 10 10v236c0 5.52-4.48 10-10 10z"/>
      <path fill="#dcdcdc" d="M138.67 150.66c-3.2 0-6.21-1.25-8.48-3.51-4.67-4.68-4.67-12.28 0-16.96 2.27-2.26 5.28-3.51 8.48-3.51s6.21 1.25 8.48 3.51c2.26 2.27 3.51 5.28 3.51 8.48s-1.25 6.21-3.51 8.48a11.947 11.947 0 01-8.48 3.51z"/>
      <path fill="#333" d="M138.67 128.37c2.75 0 5.34 1.07 7.28 3.02 4.01 4.01 4.01 10.55 0 14.56-1.94 1.94-4.53 3.02-7.28 3.02s-5.34-1.07-7.28-3.02c-4.01-4.01-4.01-10.55 0-14.56 1.94-1.95 4.53-3.02 7.28-3.02m0-3.39c-3.5 0-7.01 1.34-9.68 4.01-5.35 5.35-5.35 14.01 0 19.36 2.67 2.67 6.18 4.01 9.68 4.01s7.01-1.34 9.68-4.01c5.35-5.35 5.35-14.01 0-19.36a13.678 13.678 0 00-9.68-4.01z"/>
      <path fill="#c12028" d="M128.99 128.99L59.18 59.18l63.57 95.41 6.24-6.24c-5.35-5.35-5.35-14.02 0-19.36z" />
      <path fill="#333" d="M148.35 148.35c-5.35 5.35-14.01 5.35-19.36 0l-6.24 6.24 95.41 63.57-69.81-69.81z"/>
      <path fill="#dcdcdc" d="M148.35 148.35l69.81 69.81-63.57-95.41-6.24 6.24c5.34 5.34 5.34 14.01 0 19.36z"/>
      <path fill="#ed1e3f" d="M148.35 128.99l6.24-6.24-95.41-63.57 69.81 69.81c5.34-5.35 14.01-5.35 19.36 0z" />
      <path fill="#edeced" d="M148.82 113.4l9.07 6.05 3.87 5.81 51.57-39.93V42.67h-78.22l-10.67 42.69 46.78-.02zm-29.37 44.49l-2.79-4.19-13.55 16.98 16.43-12.73zM128 42.67H42.67l73.14 48.74zM85.33 106.7v106.63l19.39-77.54z"/>
    </g>
    <g id="logo-dark-no-bg">
      <path fill="#dcdcdc" d="M138.67 150.66c-3.2 0-6.21-1.25-8.48-3.51-4.67-4.68-4.67-12.28 0-16.96 2.27-2.26 5.28-3.51 8.48-3.51s6.21 1.25 8.48 3.51c2.26 2.27 3.51 5.28 3.51 8.48s-1.25 6.21-3.51 8.48a11.947 11.947 0 01-8.48 3.51z"/>
      <path fill="#333" d="M138.67 128.37c2.75 0 5.34 1.07 7.28 3.02 4.01 4.01 4.01 10.55 0 14.56-1.94 1.94-4.53 3.02-7.28 3.02s-5.34-1.07-7.28-3.02c-4.01-4.01-4.01-10.55 0-14.56 1.94-1.95 4.53-3.02 7.28-3.02m0-3.39c-3.5 0-7.01 1.34-9.68 4.01-5.35 5.35-5.35 14.01 0 19.36 2.67 2.67 6.18 4.01 9.68 4.01s7.01-1.34 9.68-4.01c5.35-5.35 5.35-14.01 0-19.36a13.678 13.678 0 00-9.68-4.01z"/>
      <path fill="#c12028" d="M128.99 128.99L59.18 59.18l63.57 95.41 6.24-6.24c-5.35-5.35-5.35-14.02 0-19.36z" />
      <path fill="#333" d="M148.35 148.35c-5.35 5.35-14.01 5.35-19.36 0l-6.24 6.24 95.41 63.57-69.81-69.81z"/>
      <path fill="#dcdcdc" d="M148.35 148.35l69.81 69.81-63.57-95.41-6.24 6.24c5.34 5.34 5.34 14.01 0 19.36z"/>
      <path fill="#ed1e3f" d="M148.35 128.99l6.24-6.24-95.41-63.57 69.81 69.81c5.34-5.35 14.01-5.35 19.36 0z" />
      <path fill="#edeced" d="M148.82 113.4l9.07 6.05 3.87 5.81 51.57-39.93V42.67h-78.22l-10.67 42.69 46.78-.02zm-29.37 44.49l-2.79-4.19-13.55 16.98 16.43-12.73zM128 42.67H42.67l73.14 48.74zM85.33 106.7v106.63l19.39-77.54z"/>
    </g>
    <g id="compass-needle">
      <path fill="#C12028" d="M128 114.31V15.584L105.486 128h8.824c0-7.566 6.131-13.697 13.69-13.69z" />
      <path fill="#333" d="M128 141.69c-7.566 0-13.69-6.124-13.69-13.69h-8.824L128 240.416V141.69z" />
      <path fill="#DCDCDC" d="M128 141.69v98.726L150.514 128h-8.824c0 7.552-6.131 13.683-13.69 13.69z" />
      <path fill="#ED1E3F" d="M141.69 128h8.824L128 15.584v98.726c7.559-.007 13.69 6.124 13.69 13.69z" />
      <path fill="#DCDCDC" d="M119.522 136.478a11.947 11.947 0 01-3.515-8.478c.008-6.611 5.382-11.985 11.993-11.993a11.947 11.947 0 018.478 3.515 11.947 11.947 0 013.515 8.478 11.947 11.947 0 01-3.515 8.478 11.947 11.947 0 01-8.478 3.515 11.947 11.947 0 01-8.478-3.515z" />
      <path fill="#333" d="M135.283 120.717a10.202 10.202 0 013.012 7.283c0 5.671-4.624 10.295-10.295 10.295a10.244 10.244 0 01-7.283-3.012 10.202 10.202 0 01-3.012-7.283c0-5.671 4.624-10.295 10.295-10.295a10.202 10.202 0 017.283 3.012m2.397-2.397a13.66 13.66 0 00-9.68-4.01c-7.566 0-13.69 6.124-13.69 13.69a13.66 13.66 0 004.01 9.68 13.66 13.66 0 009.68 4.01c7.566 0 13.69-6.124 13.69-13.69a13.678 13.678 0 00-4.01-9.68z" />
    </g>
  </defs>
</svg>